<svg width="108" height="88" viewBox="0 0 108 88" fill="none" xmlns="http://www.w3.org/2000/svg">
<path d="M18.825 9.17793H86.4368V53.1085H18.825V9.17793Z" fill="#24285B"/>
<path d="M47.5245 48.0902L44.955 64.4042H62.083L58.1441 48.0902H47.5245Z" fill="#C9C9C9"/>
<path opacity="0.24" d="M53.5155 84.9088C83.0713 84.9088 107.031 80.1898 107.031 74.3685C107.031 68.5473 83.0713 63.8282 53.5155 63.8282C23.9597 63.8282 0 68.5473 0 74.3685C0 80.1898 23.9597 84.9088 53.5155 84.9088Z" fill="#E6E6E6"/>
<path d="M41.0472 61.5449H65.1354V66.7875H41.0472V61.5449Z" fill="#E6E6E6"/>
<path d="M24.3227 14.7413C24.9761 14.7413 25.5058 14.2116 25.5058 13.5582C25.5058 12.9049 24.9761 12.3752 24.3227 12.3752C23.6694 12.3752 23.1397 12.9049 23.1397 13.5582C23.1397 14.2116 23.6694 14.7413 24.3227 14.7413Z" fill="white"/>
<path d="M27.8442 14.7413C28.4976 14.7413 29.0272 14.2116 29.0272 13.5582C29.0272 12.9049 28.4976 12.3752 27.8442 12.3752C27.1909 12.3752 26.6612 12.9049 26.6612 13.5582C26.6612 14.2116 27.1909 14.7413 27.8442 14.7413Z" fill="#68E1FD"/>
<path d="M31.1587 14.7413C31.8121 14.7413 32.3418 14.2116 32.3418 13.5582C32.3418 12.9049 31.8121 12.3752 31.1587 12.3752C30.5054 12.3752 29.9757 12.9049 29.9757 13.5582C29.9757 14.2116 30.5054 14.7413 31.1587 14.7413Z" fill="#FFD200"/>
<path d="M18.825 44.6273H86.4368V53.1085H18.825V44.6273Z" fill="#E6E6E6"/>
<path d="M53.3638 51.1805C54.64 51.1805 55.6746 50.1459 55.6746 48.8696C55.6746 47.5934 54.64 46.5588 53.3638 46.5588C52.0875 46.5588 51.0529 47.5934 51.0529 48.8696C51.0529 50.1459 52.0875 51.1805 53.3638 51.1805Z" fill="#A5A5A5"/>
<path d="M43.5201 33.9732H63.2073V35.408H43.5201V33.9732Z" fill="#68E1FD"/>
<path d="M52.2911 37.7464H71.9783V39.1813H52.2911V37.7464Z" fill="#FFD200"/>
<path d="M38.7812 30.5H55.3022V31.9348H38.7812V30.5Z" fill="#68E1FD"/>
<path d="M58.7374 30.5H75.2583V31.9348H58.7374V30.5Z" fill="#68E1FD"/>
<path d="M43.5201 26.4956H58.2924V27.9304H43.5201V26.4956Z" fill="#FFD200"/>
<path d="M62.1347 26.4956H76.907V27.9304H62.1347V26.4956Z" fill="#FFD200"/>
<path d="M32.6522 33.9732H40.0573V35.408H32.6522V33.9732Z" fill="white"/>
<path d="M40.0262 37.7464H47.4314V39.1813H40.0262V37.7464Z" fill="white"/>
<path d="M27.9132 30.5H35.3183V31.9348H27.9132V30.5Z" fill="white"/>
<path d="M27.9132 19.5699H35.3183V21.0047H27.9132V19.5699Z" fill="white"/>
<path d="M32.6522 23.1638H40.0573V24.5987H32.6522V23.1638Z" fill="white"/>
<path d="M43.5201 23.1638H58.2924V24.5987H43.5201V23.1638Z" fill="#FFD200"/>
<path d="M62.1347 23.1638H76.907V24.5987H62.1347V23.1638Z" fill="#FFD200"/>
<path d="M32.6522 26.4956H40.0573V27.9304H32.6522V26.4956Z" fill="white"/>
<path d="M38.2776 19.5699H53.5293V21.0047H38.2776V19.5699Z" fill="#68E1FD"/>
<path d="M56.7197 19.5699H67.5498V21.0047H56.7197V19.5699Z" fill="#68E1FD"/>
<path d="M72.1852 0H97.8772V17.6626H72.1852V0Z" fill="#FFD200"/>
<path d="M81.5805 12.2993C81.4466 12.2996 81.3165 12.2547 81.2114 12.1717L77.3588 9.12619C77.2896 9.06992 77.2339 8.99893 77.1955 8.91838C77.1572 8.83784 77.1373 8.74976 77.1373 8.66057C77.1373 8.57137 77.1572 8.4833 77.1955 8.40275C77.2339 8.32221 77.2896 8.25122 77.3588 8.19494L81.2114 5.0908C81.3349 4.99017 81.4933 4.94273 81.6518 4.9589C81.8103 4.97507 81.9558 5.05353 82.0565 5.17702C82.1571 5.30051 82.2045 5.45892 82.1883 5.61739C82.1722 5.77586 82.0937 5.92142 81.9702 6.02204L78.7005 8.65367L81.9668 11.237C82.063 11.3141 82.1329 11.4191 82.167 11.5375C82.2012 11.6559 82.1977 11.782 82.1573 11.8985C82.1169 12.0149 82.0413 12.1159 81.9411 12.1877C81.8409 12.2595 81.721 12.2985 81.5977 12.2993H81.5805Z" fill="white"/>
<path d="M88.5545 12.2993C88.4297 12.3021 88.3072 12.2653 88.2044 12.1944C88.1017 12.1234 88.0239 12.0219 87.9823 11.9041C87.9406 11.7864 87.9372 11.6586 87.9724 11.5388C88.0077 11.419 88.0798 11.3134 88.1785 11.237L91.4448 8.65368L88.1785 6.02205C88.1178 5.97291 88.0674 5.91229 88.0302 5.84366C87.9929 5.77503 87.9695 5.69973 87.9613 5.62207C87.9532 5.5444 87.9604 5.46589 87.9826 5.39101C88.0047 5.31613 88.0414 5.24635 88.0906 5.18565C88.1898 5.06308 88.3337 4.98495 88.4906 4.96846C88.5682 4.96029 88.6468 4.9675 88.7216 4.98968C88.7965 5.01185 88.8663 5.04856 88.927 5.0977L92.7761 8.20185C92.848 8.2579 92.9062 8.32957 92.9462 8.41145C92.9862 8.49332 93.0071 8.58323 93.0072 8.67437C93.0058 8.76393 92.9846 8.85207 92.9453 8.93254C92.9059 9.01301 92.8494 9.08384 92.7796 9.13999L88.927 12.1855C88.8195 12.265 88.688 12.3052 88.5545 12.2993V12.2993Z" fill="white"/>
<path d="M83.4499 12.2993C83.3651 12.2996 83.2814 12.2808 83.205 12.2441C83.1338 12.2121 83.0696 12.1663 83.0163 12.1093C82.9629 12.0524 82.9214 11.9853 82.8941 11.9122C82.8668 11.839 82.8543 11.7612 82.8574 11.6832C82.8604 11.6052 82.8789 11.5286 82.9118 11.4578L85.7159 5.31154C85.7455 5.23593 85.7902 5.16716 85.8474 5.10944C85.9045 5.05172 85.9728 5.00627 86.0481 4.97586C86.1234 4.94546 86.2041 4.93075 86.2853 4.93262C86.3665 4.9345 86.4464 4.95293 86.5202 4.98678C86.594 5.02063 86.6601 5.06919 86.7145 5.12949C86.7689 5.18978 86.8104 5.26055 86.8365 5.33745C86.8626 5.41434 86.8727 5.49576 86.8663 5.5767C86.8598 5.65765 86.8369 5.73642 86.7989 5.8082L83.9914 11.951C83.9439 12.0547 83.8676 12.1427 83.7716 12.2045C83.6757 12.2662 83.564 12.2991 83.4499 12.2993V12.2993Z" fill="white"/>
<path d="M75.7206 71.1747H54.3985H52.1532H30.8311L25.623 84.9123H52.1532H54.3985H80.9252L75.7206 71.1747Z" fill="#E6E6E6"/>
<path d="M62.8383 73.4614H51.5703H49.8664H32.6626L29.7274 82.6221H49.8664H51.5703H66.1391L62.8383 73.4614Z" fill="#C9C9C9"/>
<path opacity="0.42" d="M65.1354 73.4614L68.7086 82.6221H77.514L73.758 73.4614H65.1354Z" fill="#C9C9C9"/>
<path d="M25.623 84.9123L27.5269 87.4646H78.6902L80.9252 84.9123H25.623Z" fill="#C9C9C9"/>
<path opacity="0.58" d="M9.60564 66.9979C9.60564 66.9979 4.50793 65.6183 3.39734 60.8586C3.39734 60.8586 11.2991 59.2617 11.5233 67.4118L9.60564 66.9979Z" fill="#68E1FD"/>
<path opacity="0.73" d="M10.2299 66.4909C10.2299 66.4909 6.67049 60.8586 9.80568 55.5815C9.80568 55.5815 15.8139 59.3996 13.1444 66.4943L10.2299 66.4909Z" fill="#68E1FD"/>
<path d="M11.1508 66.4978C11.1508 66.4978 13.034 60.5481 18.7387 59.4203C18.7387 59.4203 19.8045 63.2832 15.0517 66.5116L11.1508 66.4978Z" fill="#68E1FD"/>
<path d="M7.45343 66.3633L8.4847 73.4338L14.9965 73.4614L15.9553 66.3977L7.45343 66.3633Z" fill="#24285B"/>
</svg>
