<svg width="108" height="98" viewBox="0 0 108 98" fill="none" xmlns="http://www.w3.org/2000/svg">
<path d="M21.0855 26.824V11.4557C21.0912 10.3253 21.5442 9.24316 22.3455 8.44585C23.1468 7.64854 24.2312 7.20096 25.3616 7.20097H91.9578C93.0882 7.20096 94.1726 7.64854 94.9739 8.44585C95.7752 9.24316 96.2282 10.3253 96.2339 11.4557V35.2394" stroke="#E6E6E6" stroke-width="0.427611" stroke-linecap="round" stroke-linejoin="round" stroke-dasharray="1.28 4.28"/>
<path d="M53.8362 0H74.5668V14.4019H53.8362V0Z" fill="#E6E6E6"/>
<path d="M59.1814 7.06414C59.8057 7.06414 59.8912 6.72205 59.8912 6.41417C59.8854 6.16772 59.8626 5.92197 59.8228 5.67868C59.7796 5.43865 59.7553 5.19558 59.7501 4.95174C59.7501 4.14356 60.2761 3.80147 61.033 3.80147H61.2211V4.28467H61.0629C60.5455 4.28467 60.3702 4.56689 60.3702 5.03726C60.3735 5.24663 60.3936 5.45539 60.43 5.66158C60.4679 5.88196 60.4879 6.10504 60.4899 6.32865C60.5188 6.53578 60.4708 6.74633 60.355 6.92046C60.2391 7.0946 60.0635 7.22025 59.8613 7.27367C60.0662 7.33005 60.2428 7.46068 60.3566 7.64013C60.4704 7.81957 60.5134 8.03497 60.4771 8.24435C60.4753 8.46654 60.4552 8.68822 60.4172 8.90714C60.3816 9.11201 60.3616 9.31928 60.3573 9.52718C60.3573 10.0189 60.5583 10.2883 61.0501 10.2883H61.2083V10.81H61.0201C60.2932 10.81 59.7373 10.4936 59.7373 9.60843C59.7427 9.36743 59.767 9.12722 59.81 8.89004C59.8538 8.64856 59.8796 8.40414 59.887 8.15882C59.887 7.88943 59.8014 7.50886 59.1771 7.50886L59.1814 7.06414Z" fill="#9E9E9E"/>
<path d="M69.4569 7.53024C68.8326 7.53024 68.747 7.87233 68.747 8.17593C68.7527 8.42239 68.7755 8.66815 68.8155 8.91142C68.8566 9.15318 68.8809 9.39751 68.8882 9.64264C68.8882 10.4465 68.3622 10.7886 67.6053 10.7886H67.4214V10.3054H67.5839C68.1014 10.3054 68.2767 10.0275 68.2767 9.55284C68.2733 9.34489 68.2533 9.13755 68.2168 8.9328C68.1779 8.71248 68.1565 8.48943 68.1527 8.26573C68.1228 8.05734 68.1709 7.84528 68.2877 7.67012C68.4044 7.49497 68.5817 7.36904 68.7855 7.31643C68.5809 7.26377 68.4029 7.13719 68.2861 6.96111C68.1692 6.78502 68.1217 6.57191 68.1527 6.36286C68.1556 6.13911 68.1771 5.91599 68.2168 5.69579C68.2535 5.48675 68.2735 5.27513 68.2767 5.06292C68.2767 4.57544 68.0757 4.30177 67.5839 4.30177H67.4257V3.80147H67.6096C68.3365 3.80147 68.8924 4.1179 68.8924 5.00305C68.8854 5.24394 68.8611 5.48402 68.8197 5.72144C68.7802 5.95614 68.7574 6.19335 68.7513 6.43128C68.7513 6.70495 68.8368 7.08124 69.4612 7.08124L69.4569 7.53024Z" fill="#9E9E9E"/>
<path d="M0 19.6958H43.0989V62.7947H0V19.6958Z" fill="#24285B"/>
<path d="M12.5931 38.6047H26.4392V40.1527H12.5931V38.6047Z" fill="#68E1FD"/>
<path d="M16.5657 34.2901H28.9407V35.8381H16.5657V34.2901Z" fill="#FFD200"/>
<path d="M28.3635 50.6463H34.8204V52.1942H28.3635V50.6463Z" fill="#FFD200"/>
<path d="M21.8381 46.2889H28.295V47.8368H21.8381V46.2889Z" fill="#FFD200"/>
<path d="M16.5657 42.3506H33.0629V43.8986H16.5657V42.3506Z" fill="#68E1FD"/>
<path d="M7.45752 42.3506H13.6622V43.8986H7.45752V42.3506Z" fill="white"/>
<path d="M13.6365 46.4215H19.8412V47.9694H13.6365V46.4215Z" fill="white"/>
<path d="M7.76117 54.7257H13.9658V56.2736H7.76117V54.7257Z" fill="white"/>
<path d="M3.48932 38.6047H9.69396V40.1527H3.48932V38.6047Z" fill="white"/>
<path d="M2.82222 23.0397C3.22606 23.0397 3.55344 22.7123 3.55344 22.3085C3.55344 21.9046 3.22606 21.5773 2.82222 21.5773C2.41838 21.5773 2.091 21.9046 2.091 22.3085C2.091 22.7123 2.41838 23.0397 2.82222 23.0397Z" fill="white"/>
<path d="M4.99452 23.0397C5.39836 23.0397 5.72573 22.7123 5.72573 22.3085C5.72573 21.9046 5.39836 21.5773 4.99452 21.5773C4.59068 21.5773 4.26331 21.9046 4.26331 22.3085C4.26331 22.7123 4.59068 23.0397 4.99452 23.0397Z" fill="#68E1FD"/>
<path d="M7.03847 23.0397C7.44231 23.0397 7.76968 22.7123 7.76968 22.3085C7.76968 21.9046 7.44231 21.5773 7.03847 21.5773C6.63463 21.5773 6.30725 21.9046 6.30725 22.3085C6.30725 22.7123 6.63463 23.0397 7.03847 23.0397Z" fill="#FFD200"/>
<path d="M3.48932 26.824H9.69396V28.372H3.48932V26.824Z" fill="white"/>
<path d="M7.45752 30.6982H13.6622V32.2461H7.45752V30.6982Z" fill="white"/>
<path d="M16.5657 30.6982H28.9407V32.2461H16.5657V30.6982Z" fill="#FFD200"/>
<path d="M7.45752 34.2901H13.6622V35.8381H7.45752V34.2901Z" fill="white"/>
<path d="M12.1741 26.824H24.9554V28.372H12.1741V26.824Z" fill="#68E1FD"/>
<path d="M3.66461 50.6463H9.86925V52.1942H3.66461V50.6463Z" fill="white"/>
<path d="M12.3452 50.6463H25.1264V52.1942H12.3452V50.6463Z" fill="#68E1FD"/>
<path d="M16.4203 54.7171H29.2016V56.2651H16.4203V54.7171Z" fill="#68E1FD"/>
<path d="M27.6279 26.824H36.7018V28.372H27.6279V26.824Z" fill="#68E1FD"/>
<path d="M54.6915 35.2394L56.9364 47.7214L50.7361 48.1832L51.9762 38.1728L54.6915 35.2394Z" fill="#F4A28C"/>
<path opacity="0.31" d="M51.7153 39.7294C52.3781 39.5513 52.9734 39.1808 53.4257 38.6646C53.4257 38.6646 53.3872 40.4349 51.4801 42.2223L51.7153 39.7294Z" fill="#CE8172"/>
<path d="M50.3769 34.5424C50.3769 34.5424 49.7782 37.4331 50.0433 39.4343C50.0675 39.6289 50.1302 39.8167 50.2276 39.9869C50.325 40.1571 50.4553 40.3061 50.6109 40.4255C50.7665 40.5449 50.9442 40.6321 51.1338 40.6822C51.3234 40.7323 51.5211 40.7441 51.7153 40.7171C52.7202 40.5717 54.0372 40.08 54.5461 38.5791L55.722 36.1203C55.9062 35.6031 55.9254 35.0415 55.7768 34.513C55.6282 33.9845 55.3192 33.5152 54.8924 33.1698C53.3787 31.7629 50.6505 32.7636 50.3769 34.5424V34.5424Z" fill="#F4A28C"/>
<path d="M50.0946 36.3811L49.1453 37.416C49.0911 37.4742 49.0526 37.5453 49.0333 37.6226C49.0141 37.6998 49.0147 37.7806 49.0352 37.8575C49.0557 37.9344 49.0954 38.0049 49.1506 38.0623C49.2057 38.1197 49.2745 38.1621 49.3506 38.1857L50.4495 38.532L50.0946 36.3811Z" fill="#F4A28C"/>
<path d="M55.6108 39.1521L56.6328 35.2694C56.6328 35.2694 58.8735 34.8888 58.2021 33.4264C57.5308 31.9639 56.6328 32.9346 56.6029 31.2541C56.5729 29.5736 55.2088 29.2358 54.2382 30.1765C53.2675 31.1173 53.7208 29.8002 52.5277 29.6206C51.3347 29.441 51.0012 29.9755 50.9712 30.9035C50.9413 31.8314 49.2052 30.8393 48.7519 31.9981C48.2987 33.157 48.2388 34.2816 51.2406 34.474C54.2424 34.6664 52.0873 37.1252 55.6108 39.1521V39.1521Z" fill="#24285B"/>
<path d="M53.1991 37.416C53.1991 37.416 53.353 36.2914 54.1912 36.4752C55.0293 36.6591 54.8155 38.2926 53.6438 38.3097L53.1991 37.416Z" fill="#F4A28C"/>
<path opacity="0.45" d="M55.4227 97.4782C78.2738 97.4782 96.7984 93.3085 96.7984 88.1648C96.7984 83.0212 78.2738 78.8515 55.4227 78.8515C32.5716 78.8515 14.0471 83.0212 14.0471 88.1648C14.0471 93.3085 32.5716 97.4782 55.4227 97.4782Z" fill="#E6E6E6"/>
<path d="M49.1026 46.3616C49.1026 46.3616 31.6048 41.3072 31.686 54.0158C31.7502 63.6157 42.5174 83.9956 42.5174 83.9956H64.7532C64.7532 83.9956 81.6224 58.1209 73.4166 49.7868C65.2107 41.4526 63.3292 48.6194 49.1026 46.3616V46.3616Z" fill="#68E1FD"/>
<path d="M42.4831 87.1086L56.0128 90.7562L68.0158 84.667L69.8374 81.4171H57.7403H38.4935L42.4831 87.1086Z" fill="#24285B"/>
<path opacity="0.08" d="M63.496 48.1832C63.496 48.1832 56.9364 51.4758 58.8179 68.5375C59.3481 73.3396 57.7403 74.5241 57.7403 74.5241L38.9896 76.4013L42.5174 83.9914H64.7531C64.7531 83.9914 74.5112 68.1099 75.2809 59.9297C76.0506 51.7495 63.496 48.1832 63.496 48.1832V48.1832Z" fill="black"/>
<path d="M53.0451 87.1044C53.0451 87.1044 57.5992 88.6994 56.0384 90.7562C54.4776 92.813 52.0018 89.3964 52.0018 89.3964L53.0451 87.1044Z" fill="#68E1FD"/>
<path d="M53.1649 86.309C53.1649 86.309 34.7776 76.9016 33.1912 81.9132C31.6047 86.9248 44.309 89.8197 52.4935 90.119L53.1649 86.309Z" fill="#24285B"/>
<path d="M57.6334 87.0488C57.6334 87.0488 72.3133 72.51 75.3237 76.7861C78.3341 81.0622 67.1392 87.6945 59.4294 90.4697L57.6334 87.0488Z" fill="#24285B"/>
<path d="M58.2107 88.1435C58.2107 88.1435 53.8619 92.0176 56.3805 93.1594C58.8992 94.3011 59.4294 90.4697 59.4294 90.4697L58.2107 88.1435Z" fill="#68E1FD"/>
<path d="M62.2944 51.7238C62.226 46.8277 68.1313 44.2235 71.6591 47.6145C74.2461 50.1032 76.769 53.8362 78.0134 59.3695C81.1563 73.3054 86.8051 71.1716 89.5589 66.7758C92.3127 62.3799 91.7825 52.7159 91.7825 52.7159L96.7984 52.81C96.7984 52.81 101.104 77.9022 82.6615 78.8344C68.4648 79.5485 62.4526 63.4618 62.2944 51.7238V51.7238Z" fill="#68E1FD"/>
<path opacity="0.54" d="M62.2944 51.7238C62.226 46.8277 68.1313 44.2235 71.6591 47.6145C74.2461 50.1032 76.769 53.8362 78.0134 59.3695C81.1563 73.3054 86.8051 71.1716 89.5589 66.7758C92.3127 62.3799 91.7825 52.7159 91.7825 52.7159L96.7984 52.81C96.7984 52.81 101.104 77.9022 82.6615 78.8344C68.4648 79.5485 62.4526 63.4618 62.2944 51.7238V51.7238Z" fill="white"/>
<path d="M95.2119 42.5901H97.2345V60.3573H95.2119V42.5901Z" fill="#24285B"/>
<path d="M44.3775 79.1636L42.8082 64.8729H66.8057L64.4111 79.8948L64.7532 81.8191L44.1252 81.9816L44.3775 79.1636Z" fill="#FFD200"/>
<path opacity="0.28" d="M18.0409 62.7904C18.0409 62.7904 20.923 45.2883 39.4941 45.5106L24.6004 62.7904H18.0409Z" fill="black"/>
<path d="M55.0421 74.6267C56.178 74.6267 57.0989 73.7058 57.0989 72.5699C57.0989 71.4339 56.178 70.5131 55.0421 70.5131C53.9062 70.5131 52.9853 71.4339 52.9853 72.5699C52.9853 73.7058 53.9062 74.6267 55.0421 74.6267Z" fill="white"/>
<path d="M39.9432 46.4428C38.863 45.8783 37.6159 45.7206 36.4292 45.9984C35.2424 46.2763 34.195 46.9712 33.4777 47.9566C29.8259 52.8356 21.9322 64.4367 22.2786 72.8521C22.7489 83.7776 46.5754 82.2595 46.5754 82.2595L46.105 78.1288C46.105 78.1288 31.6646 77.0897 35.65 69.8417C38.3567 64.9114 46.956 50.2871 39.9432 46.4428Z" fill="#68E1FD"/>
<path opacity="0.54" d="M39.9432 46.4428C38.863 45.8783 37.6159 45.7206 36.4292 45.9984C35.2424 46.2763 34.195 46.9712 33.4777 47.9566C29.8259 52.8356 21.9322 64.4367 22.2786 72.8521C22.7489 83.7776 46.5754 82.2595 46.5754 82.2595L46.105 78.1288C46.105 78.1288 31.6646 77.0897 35.65 69.8417C38.3567 64.9114 46.956 50.2871 39.9432 46.4428Z" fill="white"/>
<path d="M93.0439 52.7373C93.0439 52.7373 92.4794 48.4099 96.3108 48.9144C100.142 49.419 100.108 52.4935 96.7983 52.8057L93.0439 52.7373Z" fill="#F4A28C"/>
<path d="M85.1331 30.3305H107.031V44.3304H85.1331V30.3305Z" fill="#FFD200"/>
<path d="M93.2406 40.5461C93.1261 40.5467 93.0148 40.5091 92.9242 40.4392L89.6016 37.8137C89.5415 37.765 89.4928 37.7039 89.4588 37.6344C89.4248 37.565 89.4064 37.489 89.4049 37.4117C89.4053 37.3346 89.4228 37.2586 89.456 37.1891C89.4893 37.1196 89.5376 37.0584 89.5973 37.0097L92.9199 34.3372C92.9719 34.2912 93.0327 34.2562 93.0987 34.2345C93.1646 34.2127 93.2343 34.2045 93.3035 34.2104C93.3727 34.2163 93.4399 34.2363 93.5012 34.269C93.5625 34.3016 93.6165 34.3464 93.6599 34.4006C93.7034 34.4548 93.7354 34.5172 93.754 34.5841C93.7726 34.651 93.7775 34.721 93.7683 34.7898C93.759 34.8587 93.7359 34.9249 93.7004 34.9845C93.6648 35.0442 93.6175 35.096 93.5613 35.1368L90.7433 37.4074L93.5613 39.631C93.6672 39.7165 93.7351 39.8404 93.7503 39.9756C93.7655 40.1109 93.7268 40.2467 93.6425 40.3537C93.595 40.4146 93.5339 40.4637 93.4642 40.4971C93.3944 40.5305 93.3179 40.5472 93.2406 40.5461Z" fill="white"/>
<path d="M99.2272 40.5461C99.1205 40.5464 99.0164 40.5136 98.9293 40.452C98.8422 40.3905 98.7764 40.3033 98.7412 40.2027C98.7059 40.102 98.7029 39.9929 98.7325 39.8904C98.7621 39.788 98.8229 39.6973 98.9065 39.631L101.724 37.4074L98.9022 35.1368C98.7969 35.0506 98.7299 34.9265 98.7155 34.7913C98.7011 34.656 98.7405 34.5205 98.8252 34.4141C98.8675 34.3616 98.9198 34.3178 98.9791 34.2855C99.0384 34.2532 99.1034 34.2328 99.1706 34.2257C99.2377 34.2185 99.3056 34.2247 99.3703 34.2438C99.4351 34.263 99.4954 34.2947 99.5479 34.3372L102.87 37.0097C102.93 37.058 102.978 37.1193 103.011 37.1889C103.044 37.2586 103.06 37.3348 103.059 37.4117C103.058 37.4887 103.04 37.5646 103.007 37.6341C102.974 37.7035 102.926 37.7648 102.866 37.8137L99.5436 40.4392C99.453 40.5091 99.3416 40.5467 99.2272 40.5461V40.5461Z" fill="white"/>
<path d="M94.8356 40.5461C94.7635 40.5463 94.6922 40.5318 94.626 40.5033C94.5645 40.4756 94.509 40.436 94.4628 40.3868C94.4165 40.3376 94.3805 40.2798 94.3566 40.2166C94.3328 40.1535 94.3217 40.0862 94.3239 40.0187C94.3261 39.9513 94.3416 39.8849 94.3695 39.8234L96.7897 34.521C96.8464 34.3969 96.9502 34.3003 97.0781 34.2526C97.206 34.2049 97.3476 34.2099 97.4718 34.2666C97.596 34.3233 97.6925 34.427 97.7402 34.5549C97.788 34.6828 97.7829 34.8245 97.7262 34.9487L95.3059 40.2468C95.2639 40.336 95.1973 40.4115 95.1141 40.4645C95.0308 40.5175 94.9342 40.5458 94.8356 40.5461V40.5461Z" fill="white"/>
<path d="M46.2034 79.0867C46.2034 79.0867 49.8637 77.8038 50.7403 79.3218C51.6169 80.8399 50.3127 82.9052 46.5668 82.2595L46.2034 79.0867Z" fill="#F4A28C"/>
</svg>
