<svg width="79" height="79" viewBox="0 0 79 79" fill="none" xmlns="http://www.w3.org/2000/svg">
<circle cx="39.5" cy="39.5" r="39" fill="#FDFEFF" stroke="#419DB1"/>
<rect x="37" y="49" width="7" height="6" fill="#FFCEB1"/>
<path d="M27.2043 24.8517C27.0864 21.9201 29.1058 19.3333 31.9782 18.7362L43.6697 16.3057C47.0686 15.5992 50.356 17.9158 50.8338 21.3543L51.9115 29.1101C51.9703 29.5335 51.9838 29.9619 51.9515 30.3882L51.2847 39.209C51.216 40.1179 50.9411 40.9993 50.4809 41.7861L46.7993 48.0802C46.1833 49.1333 45.2558 49.9694 44.1447 50.4734V50.4734C43.3795 50.8204 42.5489 51 41.7087 51H39.7725C39.1842 51 38.5991 50.9135 38.0359 50.7432L37.5445 50.5946C36.5432 50.2918 35.6384 49.7325 34.92 48.9722L34.377 48.3976L29.041 41.6915C28.2474 40.6942 27.7921 39.4702 27.7409 38.1967L27.2043 24.8517Z" fill="#FFCEB1"/>
<ellipse cx="34" cy="32" rx="1" ry="2" fill="#070707"/>
<path d="M35 31.5C35 31.7761 34.7761 32 34.5 32C34.2239 32 34 31.7761 34 31.5C34 31.2239 34.2239 31 34.5 31C34.7761 31 35 31.2239 35 31.5Z" fill="#FFEEEE"/>
<ellipse cx="48" cy="32" rx="1" ry="2" fill="#070707"/>
<path d="M49 31.5C49 31.7761 48.7761 32 48.5 32C48.2239 32 48 31.7761 48 31.5C48 31.2239 48.2239 31 48.5 31C48.7761 31 49 31.2239 49 31.5Z" fill="#FFEEEE"/>
<path d="M36 43H46L45.375 43.8462L44.75 44.5128L44.125 45.1795L43.8125 45.5128L42.875 46H40.0625L39.4375 45.8462L38.8125 45.5128L38.1875 45.1795L37.875 44.8462L36 43Z" fill="#FFF0F0"/>
<path d="M32 23.4288C32 27.4386 30.4081 30.9999 28.4444 30.9999C23.5556 30.0293 28 30.9999 24 22.0313C24 18.0215 29.7778 16.1686 29.7778 20.4394C31.7415 20.4394 32 19.419 32 23.4288Z" fill="#2B1716"/>
<path d="M56.92 20.8313C52.664 16.6647 48.1228 25 39.896 25C31.6692 25 25 22.7614 25 20C25 17.2386 31.6692 15 39.896 15C51.8128 15.0001 57.7712 16.248 56.92 20.8313Z" fill="#2B1716"/>
<path d="M41.0034 35.7079L42.6154 40.3885" stroke="black" stroke-width="0.2"/>
<path d="M42.5949 40.3063L39.2307 40.3885" stroke="black" stroke-width="0.2"/>
<path d="M57 15.6667C57 15.6667 49.6912 19 44.82 19C39.9488 19 36 17.8807 36 16.5C36 15.1193 39.9488 14 44.82 14C49.6912 14 51.54 16.982 57 15.6667Z" fill="#2B1716"/>
<path d="M50 17.3862C50 20.4866 35.5916 23 32.6207 23C29.6498 23 26 22.2139 26 19.1135C26 16.0131 26.8276 14.3634 32.6207 13.0679C42.5517 12.6361 50 14.2858 50 17.3862Z" fill="#2B1716"/>
<path d="M36 29.9619C36 30.139 35.1046 29.6413 34 29.6413C32.8954 29.6413 32 30.139 32 29.9619C32 29.7848 32.8954 29 34 29C35.1046 29 36 29.7848 36 29.9619Z" fill="#2B1716"/>
<path d="M50 29.9619C50 30.139 49.1046 29.6413 48 29.6413C46.8954 29.6413 46 30.139 46 29.9619C46 29.7848 46.8954 29 48 29C49.1046 29 50 29.7848 50 29.9619Z" fill="#2B1716"/>
<path fill-rule="evenodd" clip-rule="evenodd" d="M27.5587 30.4522C27.295 30.1776 26.9978 30.0281 26.69 30.0443C25.7566 30.0932 25.0793 31.6461 25.1771 33.5128C25.275 35.3795 26.1109 36.8531 27.0443 36.8042C27.3521 36.7881 27.6321 36.6084 27.8656 36.3078L27.5587 30.4522Z" fill="#FFCEB1"/>
<ellipse cx="26.8293" cy="33.2926" rx="0.5" ry="2" transform="rotate(-3 26.8293 33.2926)" fill="#E9AC91"/>
<path d="M34.5 53L40.5 56.5L46.5 53L53.5 61.5L52 74L44.5 77.5H40.5H34.5L28.5 74L34.5 53Z" fill="white"/>
<path d="M26 54.209L30.5 53.5L34.5556 53L35.7778 64L36.3889 69.2609L37.5 77.5H34.5L31.5 77L28 76V75L27 65L26 54.209Z" fill="#353F48"/>
<path d="M46.4444 53L52 54L55 54.5L54 64.5L52.5 75.5L49.5 76.5L46.5 77L44 77.5L44.6111 69.2609L45.2222 64L46.4444 53Z" fill="#353F48"/>
<circle cx="34.5" cy="62.5" r="0.5" fill="#311616"/>
<circle cx="34.5" cy="71.5" r="0.5" fill="#311616"/>
<circle cx="34.5" cy="68.5" r="0.5" fill="#311616"/>
<circle cx="34.5" cy="65.5" r="0.5" fill="#311616"/>
<path d="M17 64.5L20.5 60C20.5 60 26.1672 52.9071 26.1672 54.4071C26.1672 55.9071 27 61.5 27 61.5V64L22 68L20 70L18 71.5L16 70.5L13.5 68.5L17 64.5Z" fill="#353F48"/>
<path d="M63.3455 54.659L59.7675 59.0972C59.7675 59.0972 53.4738 66.9998 53.5 65.5C53.5262 64.0002 54.3032 57.0015 54.3032 57.0015L54.3469 54.5019L68.5 39L72.5 39L73 39L63.3455 54.659Z" fill="#353F48"/>
<circle cx="71" cy="37" r="3" fill="#FFCEB1"/>
<path d="M69.3987 34.8653C69.7676 36.7628 69.3698 35.8897 69.0987 35.9424C68.7987 37.0194 68.3089 34.4995 67.9401 32.6021C67.5712 30.7046 67.682 30.0502 67.9401 30C68.4191 29.9069 69.0299 32.9678 69.3987 34.8653Z" fill="#FFCEB1"/>
<path d="M68.2775 36.228C69.0694 37.359 68.7262 37.8416 68.5 38C68.2738 38.1584 67.4484 37.3699 66.6565 36.2389C65.8645 35.1079 65.1834 33.4451 65.4096 33.2867C65.6358 33.1283 67.4855 35.097 68.2775 36.228Z" fill="#FFCEB1"/>
<path d="M75.133 33.7723C74.3468 35.5382 73.505 36.8787 73.2527 36.7663C73.0004 36.654 72.6677 36.6599 73.4539 34.894C74.1825 33.4907 75.0575 32.5445 75.3098 32.6568C75.562 32.7692 75.0307 33.9991 75.133 33.7723Z" fill="#FFCEB1"/>
<path d="M72.8118 35.0354C72.6433 36.9611 72.5017 36.0121 72.2266 35.9881C71.9515 35.964 71.7343 35.8777 71.9028 33.9521C72.0713 32.0264 72.3277 29.4721 72.7931 29.5128C73.3842 29.5645 72.9803 33.1098 72.8118 35.0354Z" fill="#FFCEB1"/>
<path d="M71 34C71 35.933 70.7761 36 70.5 36C70.2239 36 70 36.433 70 34.5C70 32.567 70 29 70.5 29C71.1069 29 71 32.067 71 34Z" fill="#FFCEB1"/>
<path d="M46 42.5C46 43.0523 42.6569 42.5 41 42.5C39.3431 42.5 36 43.0523 36 42.5C36 41.9477 39.3431 41 41 41C42.6569 41 46 41.9477 46 42.5Z" fill="#2B1716"/>
<path d="M42 73.806L40.5368 76L39 73.806L39.7684 55.374L40.5 54.5L41.3052 55.374L42 73.806Z" fill="#1F1414"/>
<path fill-rule="evenodd" clip-rule="evenodd" d="M35 53.4271L39.2204 56.9538L40.5273 54.8849L41.6752 56.8423L46 53.4871L44.5415 51L40.3886 54.2218L36.5332 51L35 53.4271Z" fill="white"/>
</svg>
