<svg width="368" height="107" viewBox="0 0 368 107" fill="none" xmlns="http://www.w3.org/2000/svg">
<path d="M109.352 69H106.195L104.227 61.62C103.844 60.1987 103.407 59.0917 102.915 58.299C102.423 57.5063 101.74 56.9323 100.865 56.577C100.018 56.1943 98.8561 56.003 97.3801 56.003H90.7381V69H87.7861V40.3H100.086C102.765 40.3 104.801 40.9697 106.195 42.309C107.616 43.6483 108.327 45.5343 108.327 47.967C108.327 50.017 107.835 51.657 106.851 52.887C105.894 54.0897 104.528 54.8413 102.751 55.142C103.954 55.5793 104.883 56.3037 105.539 57.315C106.222 58.3263 106.824 59.7613 107.343 61.62L109.352 69ZM99.7581 53.625C101.535 53.625 102.915 53.1467 103.899 52.19C104.883 51.2333 105.375 49.894 105.375 48.172C105.375 46.4227 104.883 45.0697 103.899 44.113C102.915 43.1563 101.535 42.678 99.7581 42.678H90.7381V53.625H99.7581ZM127.231 69C124.033 69 121.655 68.303 120.097 66.909C118.566 65.4877 117.801 63.3283 117.801 60.431V48.869C117.801 45.9717 118.566 43.826 120.097 42.432C121.655 41.0107 124.033 40.3 127.231 40.3H137.112V42.678H127.231C125.017 42.678 123.377 43.1837 122.311 44.195C121.272 45.2063 120.753 46.7643 120.753 48.869V53.461H135.021V55.839H120.753V60.431C120.753 62.5357 121.272 64.0937 122.311 65.105C123.377 66.1163 125.017 66.622 127.231 66.622H137.358V69H127.231ZM155.847 69.451C153.332 69.451 151.255 69.082 149.615 68.344C148.002 67.5787 146.513 66.294 145.146 64.49L147.155 62.727C148.33 64.3123 149.547 65.433 150.804 66.089C152.089 66.745 153.715 67.073 155.683 67.073C158.252 67.073 160.234 66.581 161.628 65.597C163.049 64.613 163.76 63.2327 163.76 61.456C163.76 60.3353 163.5 59.447 162.981 58.791C162.462 58.135 161.546 57.5747 160.234 57.11C158.922 56.618 156.981 56.1123 154.412 55.593C151.597 55.0463 149.506 54.1443 148.139 52.887C146.8 51.6297 146.13 49.9487 146.13 47.844C146.13 45.3567 147.018 43.4023 148.795 41.981C150.599 40.5597 153.073 39.849 156.216 39.849C158.457 39.849 160.398 40.2453 162.038 41.038C163.678 41.8033 164.949 42.9377 165.851 44.441L163.842 46.081C162.995 44.8237 161.915 43.867 160.603 43.211C159.318 42.555 157.829 42.227 156.134 42.227C153.975 42.227 152.253 42.719 150.968 43.703C149.711 44.687 149.082 46.0127 149.082 47.68C149.082 49.156 149.642 50.3313 150.763 51.206C151.884 52.0533 153.729 52.7367 156.298 53.256C159.004 53.8027 161.095 54.4177 162.571 55.101C164.074 55.7843 165.14 56.618 165.769 57.602C166.398 58.5587 166.712 59.816 166.712 61.374C166.712 63.998 165.783 66.007 163.924 67.401C162.065 68.7677 159.373 69.451 155.847 69.451ZM186.481 69.451C183.091 69.451 180.426 68.7267 178.486 67.278C176.572 65.802 175.616 63.7793 175.616 61.21V40.3H178.568V61.21C178.568 63.0413 179.265 64.4763 180.659 65.515C182.053 66.5537 183.993 67.073 186.481 67.073C188.968 67.073 190.909 66.5537 192.303 65.515C193.697 64.4763 194.394 63.0413 194.394 61.21V40.3H197.346V61.21C197.346 63.7793 196.375 65.802 194.435 67.278C192.521 68.7267 189.87 69.451 186.481 69.451ZM208.208 40.3H209.971C211.173 40.3 212.144 40.5733 212.882 41.12C213.647 41.6393 214.385 42.5823 215.096 43.949L221.164 55.552L227.232 43.949C227.942 42.5823 228.667 41.6393 229.405 41.12C230.17 40.5733 231.154 40.3 232.357 40.3H234.12V69H231.332V43.252C230.949 43.3067 230.607 43.457 230.307 43.703C230.033 43.9217 229.746 44.318 229.446 44.892L221.164 60.472L212.882 44.892C212.554 44.2907 212.253 43.8807 211.98 43.662C211.706 43.416 211.378 43.2793 210.996 43.252V69H208.208V40.3ZM254.138 69C250.94 69 248.562 68.303 247.004 66.909C245.474 65.4877 244.708 63.3283 244.708 60.431V48.869C244.708 45.9717 245.474 43.826 247.004 42.432C248.562 41.0107 250.94 40.3 254.138 40.3H264.019V42.678H254.138C251.924 42.678 250.284 43.1837 249.218 44.195C248.18 45.2063 247.66 46.7643 247.66 48.869V53.461H261.928V55.839H247.66V60.431C247.66 62.5357 248.18 64.0937 249.218 65.105C250.284 66.1163 251.924 66.622 254.138 66.622H264.265V69H254.138Z" fill="black"/>
<rect width="34.59" height="34.59" transform="matrix(0.866044 -0.499967 0.866044 0.499967 282.08 75.7432)" fill="#D9D9D9"/>
<rect width="34.59" height="34.59" transform="matrix(-0.868771 -0.495213 -0.00559376 -0.999984 342.753 74.449)" fill="#D35B5B"/>
<rect width="34.59" height="34.59" transform="matrix(-0.000857918 1 -0.866416 0.499322 310.969 22.7581)" fill="#4CBAD2"/>
<path d="M22.3823 31.9H27.6383V83H22.3823V31.9Z" fill="black"/>
<path d="M27 26C27 27.1045 26.1046 28 25 28C23.8954 28 23 27.1045 23 26C23 24.8954 23.8954 24 25 24C26.1046 24 27 24.8954 27 26Z" fill="#D35B5B"/>
<path d="M31 17.9999C31 20.2091 29.2091 21.9999 27 21.9999C24.7909 21.9999 23 20.2091 23 17.9999C23 15.7908 24.7909 13.9999 27 13.9999C29.2091 13.9999 31 15.7908 31 17.9999Z" fill="#D35B5B"/>
<path d="M26 30C26 30.5523 25.5523 31 25 31C24.4477 31 24 30.5523 24 30C24 29.4477 24.4477 29 25 29C25.5523 29 26 29.4477 26 30Z" fill="#D35B5B"/>
<path d="M28 22C28 23.6569 26.6569 25 25 25C23.3431 25 22 23.6569 22 22C22 20.3431 23.3431 19 25 19C26.6569 19 28 20.3431 28 22Z" fill="#D35B5B"/>
<path d="M66 26.9999C66 29.2091 64.2091 30.9999 62 30.9999C59.7909 30.9999 58 29.2091 58 26.9999C58 24.7908 59.7909 22.9999 62 22.9999C64.2091 22.9999 66 24.7908 66 26.9999Z" fill="#D35B5B"/>
<path d="M82 26.9999C82 28.1045 81.1046 28.9999 80 28.9999C78.8954 28.9999 78 28.1045 78 26.9999C78 25.8954 78.8954 24.9999 80 24.9999C81.1046 24.9999 82 25.8954 82 26.9999Z" fill="#D35B5B"/>
<path d="M75 26.9999C75 28.6567 73.6569 29.9999 72 29.9999C70.3431 29.9999 69 28.6567 69 26.9999C69 25.343 70.3431 23.9999 72 23.9999C73.6569 23.9999 75 25.343 75 26.9999Z" fill="#D35B5B"/>
<path d="M42 27C42 25.8954 42.8954 25 44 25C45.1046 25 46 25.8954 46 27C46 28.1045 45.1046 29 44 29C42.8954 29 42 28.1045 42 27Z" fill="#D35B5B"/>
<path d="M49 26.9999C49 25.3431 50.3431 23.9999 52 23.9999C53.6569 23.9999 55 25.3431 55 26.9999C55 28.6568 53.6569 29.9999 52 29.9999C50.3431 29.9999 49 28.6568 49 26.9999Z" fill="#D35B5B"/>
<path fill-rule="evenodd" clip-rule="evenodd" d="M60.5 32.4048L59 32L59.8484 59.2428L64.5576 54.564L65 32L63.5 32.4048L62 32L60.5 32.4048ZM64.4551 59.7922L60.0032 64.2153L60.5 80.1667L64 83L64.4551 59.7922Z" fill="black"/>
<path d="M313.767 52.6988C316.47 55.1084 318.217 58.4089 318.69 61.9989C319.482 68.0261 327.144 63.4877 329.345 56.8898L331.459 58.2992C331.459 58.2992 328.209 69.5472 318.69 70.0112C309.172 70.4752 305.763 55.2 313.767 52.6988V52.6988Z" fill="#68E1FD"/>
<path opacity="0.46" d="M313.767 52.6988C316.47 55.1084 318.217 58.4089 318.69 61.9989C319.482 68.0261 327.144 63.4877 329.345 56.8898L331.459 58.2992C331.459 58.2992 328.209 69.5472 318.69 70.0112C309.172 70.4752 305.763 55.2 313.767 52.6988V52.6988Z" fill="white"/>
<path opacity="0.3" d="M294.73 42.3144C289.768 44.7014 286.242 50.411 285.763 57.1677C285.358 62.8748 287.401 71.0831 296.214 72.5347C313.365 75.351 331.318 76.7729 335.025 67.2445C338.732 57.7161 334.571 38.6519 325.896 37.9447C318.998 37.3864 304.418 37.6494 294.73 42.3144V42.3144Z" fill="#E6E6E6"/>
<path d="M310.552 44.3019C310.903 44.9648 311.165 45.6716 311.331 46.4036C311.345 46.492 311.341 46.5823 311.32 46.6693C311.299 46.7562 311.261 46.8382 311.209 46.9104C311.156 46.9826 311.089 47.0437 311.013 47.09C310.936 47.1363 310.851 47.167 310.763 47.1803C310.48 47.243 310.186 47.2222 309.915 47.1204C309.645 47.0186 309.41 46.8402 309.239 46.6071L308.403 45.6816C308.255 45.4787 308.173 45.2349 308.17 44.9838C308.166 44.7326 308.241 44.4866 308.383 44.2796C308.872 43.4757 310.199 43.5551 310.552 44.3019V44.3019Z" fill="#F4A28C"/>
<path d="M309.031 45.8553L307.969 50.1554L310.38 50.5698L310.189 47.3565L309.031 45.8553Z" fill="#F4A28C"/>
<path d="M310.914 45.0786L311.467 45.4086C311.498 45.4284 311.523 45.4556 311.541 45.4876C311.558 45.5197 311.567 45.5557 311.567 45.5922C311.567 45.6288 311.558 45.6647 311.541 45.6968C311.523 45.7289 311.498 45.7561 311.467 45.7759L311.04 46.0711L310.914 45.0786Z" fill="#F4A28C"/>
<path opacity="0.31" d="M310.202 47.1878C310.202 47.1878 309.316 46.9967 309.023 46.7188C309.023 46.7188 309.105 48.7336 310.286 48.9967L310.202 47.1878Z" fill="#CE8172"/>
<path d="M308.633 45.4483C308.633 45.4483 307.909 45.2151 307.785 45.7784C307.661 46.3416 308.467 46.5798 308.882 46.1605C308.717 45.9602 308.629 45.7077 308.633 45.4483V45.4483Z" fill="#F4A28C"/>
<path d="M314.422 85.4998H298.76V74.3064H314.422V85.4998Z" fill="#E6E6E6"/>
<path opacity="0.08" d="M310.289 85.5023L311.04 75.6463L314.184 76.1252L314.408 79.1153L314.423 85.5023H310.289Z" fill="black"/>
<path d="M310.656 84.5704C310.656 84.5704 310.994 85.5034 311.835 85.5753C312.676 85.6473 312.899 86.4711 312.142 86.6845C311.386 86.8979 309.428 85.9252 309.428 85.9252L309.482 84.7093L310.656 84.5704Z" fill="#68E1FD"/>
<path d="M321.752 84.5139C321.752 84.5139 322.677 84.8638 323.28 84.2658C323.883 83.6678 324.652 84.0375 324.322 84.762C323.992 85.4866 321.985 86.3327 321.985 86.3327L320.888 85.3079L321.752 84.5139Z" fill="#68E1FD"/>
<path d="M310.586 50.5227L308.174 50.1058C308.174 50.1058 300.152 50.1058 298.745 52.8651C297.338 55.6243 297.636 65.8376 302.276 74.232L311.777 74.5049C311.777 74.5049 311.249 68.3412 313.018 64.984C314.787 61.6267 320.296 54.4928 310.586 50.5227V50.5227Z" fill="#68E1FD"/>
<path d="M302.279 74.232L306.926 73.5297C307.597 73.4284 308.283 73.4821 308.93 73.6866C309.577 73.891 310.169 74.2409 310.66 74.7094C311.151 75.1779 311.528 75.7525 311.762 76.3893C311.997 77.0262 312.083 77.7082 312.013 78.3833L311.408 84.2839H309.127L309.323 78.7579C309.335 78.4488 309.278 78.1409 309.156 77.8565C309.034 77.5721 308.851 77.3182 308.62 77.1132C308.388 76.9081 308.114 76.757 307.817 76.6707C307.519 76.5844 307.207 76.565 306.901 76.6141C304.924 76.9366 302.475 76.7977 302.279 74.232V74.232Z" fill="#24285B"/>
<path opacity="0.08" d="M303.093 53.8502C303.093 53.8502 305.728 56.1578 305.199 58.7086C305.112 59.1205 305.023 59.6168 304.934 60.1627C304.591 62.2771 304.72 64.441 305.311 66.4999C305.901 68.5588 306.939 70.4618 308.351 72.0732L310.008 73.9714L302.279 74.232L301.616 72.9367L298.008 66.9393L303.093 53.8502Z" fill="black"/>
<path d="M298.614 53.1182C296.855 55.5995 295.289 61.0585 296.649 68.7705C296.852 69.909 297.431 70.9466 298.293 71.7172C299.155 72.4878 300.251 72.9469 301.405 73.0211L308.666 73.4801V71.1104L303.15 70.3139C302.848 70.2706 302.559 70.1625 302.303 69.997C302.046 69.8316 301.829 69.6126 301.665 69.3552C301.502 69.0978 301.396 68.808 301.355 68.5058C301.314 68.2035 301.339 67.896 301.428 67.6043C302.4 64.4034 303.909 58.6069 303.517 54.4755C303.289 51.9668 300.073 51.0636 298.614 53.1182Z" fill="#68E1FD"/>
<path opacity="0.46" d="M298.614 53.1182C296.855 55.5995 295.289 61.0585 296.649 68.7705C296.852 69.909 297.431 70.9466 298.293 71.7172C299.155 72.4878 300.251 72.9469 301.405 73.0211L308.666 73.4801V71.1104L303.15 70.3139C302.848 70.2706 302.559 70.1625 302.303 69.997C302.046 69.8316 301.829 69.6126 301.665 69.3552C301.502 69.0978 301.396 68.808 301.355 68.5058C301.314 68.2035 301.339 67.896 301.428 67.6043C302.4 64.4034 303.909 58.6069 303.517 54.4755C303.289 51.9668 300.073 51.0636 298.614 53.1182Z" fill="white"/>
<path d="M308.676 71.6861C308.676 71.6861 311.621 71.6117 311.202 73.1476C310.782 74.6836 308.676 73.4801 308.676 73.4801V71.6861Z" fill="#F4A28C"/>
<path d="M318.477 74.031L319.666 67.309H311.231L310.499 73.0409L306.634 73.093V74.031H318.477Z" fill="#FFD200"/>
<path d="M315.117 71.3759C315.583 71.3759 315.961 70.9982 315.961 70.5323C315.961 70.0663 315.583 69.6886 315.117 69.6886C314.651 69.6886 314.274 70.0663 314.274 70.5323C314.274 70.9982 314.651 71.3759 315.117 71.3759Z" fill="white"/>
<path opacity="0.58" d="M327.922 77.1451C327.922 77.1451 325.611 76.5148 325.11 74.3635C325.11 74.3635 328.688 73.6414 328.79 77.3411L327.922 77.1451Z" fill="#68E1FD"/>
<path d="M328.621 76.9168C328.621 76.9168 329.472 74.2221 332.051 73.7134C332.051 73.7134 332.534 75.4628 330.381 76.9243L328.621 76.9168Z" fill="#68E1FD"/>
<path d="M326.92 77.3324L327.386 80.5358L330.337 80.5482L330.771 77.3473L326.92 77.3324Z" fill="#24285B"/>
<path d="M308.805 47.2051C308.805 47.2051 306.512 46.5972 307.237 45.0712C307.237 45.0712 306.425 43.7784 307.773 43.1184C308.567 42.7288 309.743 42.5228 310.576 42.4186C310.69 42.405 310.804 42.4234 310.907 42.4718C311.011 42.5202 311.098 42.5966 311.16 42.6923C311.222 42.788 311.255 42.8992 311.257 43.0131C311.259 43.1271 311.228 43.2392 311.169 43.3367C310.941 43.7201 310.63 44.0474 310.259 44.2944C309.887 44.5413 309.465 44.7016 309.023 44.7635C309.173 45.1605 309.232 45.5865 309.194 46.0094C309.156 46.4322 309.023 46.8411 308.805 47.2051V47.2051Z" fill="#24285B"/>
<path d="M309.373 45.7287C309.373 45.7287 309.16 45.2548 308.815 45.4459C308.47 45.6369 308.777 46.3243 309.294 46.1903L309.373 45.7287Z" fill="#F4A28C"/>
<path d="M329.693 57.1131C329.693 57.1131 330.591 54.0288 331.251 53.9842C331.911 53.9395 331.251 55.7459 331.251 55.7459C331.251 55.7459 333.673 56.3613 331.472 58.2992L329.693 57.1131Z" fill="#F4A28C"/>
<path d="M332.514 44.3466C336.336 44.3466 339.434 41.2482 339.434 37.4261C339.434 33.6041 336.336 30.5056 332.514 30.5056C328.692 30.5056 325.594 33.6041 325.594 37.4261C325.594 41.2482 328.692 44.3466 332.514 44.3466Z" fill="#FFD200"/>
<path opacity="0.46" d="M334.072 39.9323C336.025 39.9323 337.608 38.3492 337.608 36.3964C337.608 34.4435 336.025 32.8604 334.072 32.8604C332.119 32.8604 330.536 34.4435 330.536 36.3964C330.536 38.3492 332.119 39.9323 334.072 39.9323Z" fill="white"/>
<path opacity="0.46" d="M335.261 37.8132C336.328 37.8132 337.194 36.9478 337.194 35.8802C337.194 34.8127 336.328 33.9473 335.261 33.9473C334.193 33.9473 333.328 34.8127 333.328 35.8802C333.328 36.9478 334.193 37.8132 335.261 37.8132Z" fill="white"/>
<path d="M328.479 43.0166H336.549V49.3143H328.479V43.0166Z" fill="#24285B"/>
<path d="M330.536 49.3143H334.405V51.8403H330.536V49.3143Z" fill="#24285B"/>
<path opacity="0.75" d="M330.536 49.3143H334.405V51.8403H330.536V49.3143Z" fill="white"/>
<path d="M322.648 32.8604C322.648 32.8604 300.008 25.5256 294.227 35.6147C290.341 42.3913 298.18 46.2027 302.398 45.5749" stroke="#E6E6E6" stroke-width="2.13685" stroke-linecap="round" stroke-linejoin="round" stroke-dasharray="2.14 10.68"/>
<path d="M314.308 73.9267L321.708 83.9439L320.264 85.2764C320.264 85.2764 313.827 77.7604 310.373 75.6438L309.167 74.0285L314.308 73.9267Z" fill="#24285B"/>
</svg>
